#N canvas 725 112 1920 1117 10;
#X obj 1024 25 cnv 15 400 200 empty empty GLOBAL_VARS 20 12 0 14 -191407
-66577 0;
#X obj 1063 195 dac~;
#X obj 1154 64 noise~;
#N canvas 412 441 462 431 windspeed 0;
#X obj 13 41 +~ 1;
#X obj 12 151 +~;
#X obj 13 64 *~ 0.25;
#X obj 28 129 +~;
#X obj 13 173 clip~ 0 1;
#N canvas 1226 550 184 256 squall 0;
#X obj 78 41 noise~;
#X obj 77 108 hip~ 0;
#X obj 78 64 lop~ 3;
#X obj 78 85 lop~ 3;
#X obj 17 112 *~;
#X obj 38 160 *~;
#X obj 16 42 max~ 0.4;
#X obj 16 64 -~ 0.4;
#X obj 16 87 *~ 8;
#X obj 78 129 *~ 20;
#X obj 16 14 inlet~;
#X obj 40 184 outlet~;
#X connect 0 0 2 0;
#X connect 1 0 9 0;
#X connect 2 0 3 0;
#X connect 3 0 1 0;
#X connect 4 0 5 0;
#X connect 5 0 11 0;
#X connect 6 0 7 0;
#X connect 7 0 8 0;
#X connect 8 0 4 0;
#X connect 8 0 4 1;
#X connect 9 0 5 1;
#X connect 10 0 6 0;
#X restore 83 98 pd squall;
#N canvas 1218 153 190 226 gust 0;
#X obj 9 15 noise~;
#X obj 8 82 hip~ 0;
#X obj 8 157 *~;
#X obj 76 72 *~;
#X obj 75 49 +~ 0.5;
#X obj 76 96 -~ 0.125;
#X obj 9 59 lop~ 0.5;
#X obj 9 38 lop~ 0.5;
#X obj 9 103 *~ 50;
#X obj 75 9 inlet~;
#X obj 8 182 outlet~;
#X connect 0 0 7 0;
#X connect 1 0 8 0;
#X connect 2 0 10 0;
#X connect 3 0 5 0;
#X connect 4 0 3 0;
#X connect 4 0 3 1;
#X connect 5 0 2 1;
#X connect 6 0 1 0;
#X connect 7 0 6 0;
#X connect 8 0 2 0;
#X connect 9 0 4 0;
#X restore 27 98 pd gust;
#X obj 13 199 outlet~;
#X obj 13 19 osc~ 0.1;
#X obj 64 140 r wind_intensity;
#X obj 76 162 r wind_intensity @hv_param 0 2 1.165;
#X connect 0 0 2 0;
#X connect 1 0 4 0;
#X connect 2 0 1 0;
#X connect 2 0 5 0;
#X connect 2 0 6 0;
#X connect 3 0 1 1;
#X connect 4 0 7 0;
#X connect 5 0 3 1;
#X connect 6 0 3 0;
#X connect 8 0 0 0;
#X connect 9 0 4 2;
#X connect 10 0 4 2;
#X restore 1038 63 pd windspeed;
#X obj 1039 116 catch~ l;
#X obj 1103 116 catch~ r;
#X obj 1153 88 s~ white;
#X obj 1104 170 *~ 0.45;
#X obj 1040 170 *~ 0.45;
#X obj 556 362 cnv 15 350 480 empty empty LEAVES 20 12 0 14 -204786
-66577 0;
#X obj 597 770 throw~ l;
#X obj 661 770 throw~ r;
#X obj 596 556 r~ white;
#X obj 596 584 max~;
#X obj 596 605 -~;
#X obj 596 627 *~;
#X obj 659 531 sig~ 1;
#X obj 659 555 -~;
#X obj 597 693 *~;
#X obj 677 462 +~ 0.3;
#X obj 724 510 -~ 0.2;
#X obj 676 510 *~ 0.4;
#X obj 596 649 hip~ 200;
#X obj 597 671 lop~ 4000;
#X obj 597 714 *~ 0.8;
#X obj 677 440 vd~ a 3000;
#X obj 677 484 lop~ 0.07;
#N canvas 1895 579 450 300 fcpan 0;
#X obj 74 133 *~;
#X obj 6 133 *~;
#X obj 90 87 cos~;
#X obj 90 50 -~ 0.25;
#X obj 90 28 *~ 0.25;
#X obj 22 111 cos~;
#X obj 22 87 -~ 0.25;
#X obj 6 156 outlet~ l;
#X obj 74 156 outlet~ r;
#X obj 6 6 inlet~;
#X obj 90 6 sig~ 100;
#X connect 0 0 8 0;
#X connect 1 0 7 0;
#X connect 2 0 0 1;
#X connect 3 0 2 0;
#X connect 3 0 6 0;
#X connect 4 0 3 0;
#X connect 5 0 1 1;
#X connect 6 0 5 0;
#X connect 9 0 1 0;
#X connect 9 0 0 0;
#X connect 10 0 4 0;
#X restore 603 739 pd fcpan 0.71;
#X obj 18 360 cnv 15 530 430 empty empty DOORWAYS 20 12 0 14 -262130
-66577 0;
#X obj 171 622 *~;
#X obj 171 720 throw~ l;
#X obj 236 720 throw~ r;
#X obj 171 578 r~ white;
#X obj 249 513 cos~;
#X obj 249 447 -~ 0.25;
#X obj 249 425 clip~ 0.25 0.5;
#X obj 249 491 -~ 0.25;
#X obj 249 469 *~ 2;
#X obj 171 600 bp~ 200 40;
#X obj 171 666 *~;
#X obj 249 601 osc~;
#X obj 249 557 *~ 100;
#X obj 249 579 +~ 20;
#X obj 249 535 lop~ 0.1;
#X obj 39 622 *~;
#X obj 39 720 throw~ l;
#X obj 104 720 throw~ r;
#X obj 39 578 r~ white;
#X obj 117 513 cos~;
#X obj 117 491 -~ 0.25;
#X obj 117 469 *~ 2;
#X obj 39 668 *~;
#X obj 117 601 osc~;
#X obj 117 425 clip~ 0.35 0.6;
#X obj 117 447 -~ 0.35;
#X obj 117 535 lop~ 0.5;
#X obj 39 600 bp~ 400 40;
#X obj 117 557 *~ 200;
#X obj 117 579 +~ 30;
#X obj 39 644 *~ 2;
#X obj 171 644 *~ 2;
#X obj 249 403 vd~ a 300;
#N canvas 1681 593 450 300 fcpan 0;
#X obj 74 133 *~;
#X obj 6 133 *~;
#X obj 90 87 cos~;
#X obj 90 50 -~ 0.25;
#X obj 90 28 *~ 0.25;
#X obj 22 111 cos~;
#X obj 22 87 -~ 0.25;
#X obj 6 156 outlet~ l;
#X obj 74 156 outlet~ r;
#X obj 6 6 inlet~;
#X obj 90 6 sig~ 100;
#X connect 0 0 8 0;
#X connect 1 0 7 0;
#X connect 2 0 0 1;
#X connect 3 0 2 0;
#X connect 3 0 6 0;
#X connect 4 0 3 0;
#X connect 5 0 1 1;
#X connect 6 0 5 0;
#X connect 9 0 1 0;
#X connect 9 0 0 0;
#X connect 10 0 4 0;
#X restore 37 690 pd fcpan 0.91;
#N canvas 1823 587 450 300 fcpan 0;
#X obj 74 133 *~;
#X obj 6 133 *~;
#X obj 90 87 cos~;
#X obj 90 50 -~ 0.25;
#X obj 90 28 *~ 0.25;
#X obj 22 111 cos~;
#X obj 22 87 -~ 0.25;
#X obj 6 156 outlet~ l;
#X obj 74 156 outlet~ r;
#X obj 6 6 inlet~;
#X obj 90 6 sig~ 100;
#X connect 0 0 8 0;
#X connect 1 0 7 0;
#X connect 2 0 0 1;
#X connect 3 0 2 0;
#X connect 3 0 6 0;
#X connect 4 0 3 0;
#X connect 5 0 1 1;
#X connect 6 0 5 0;
#X connect 9 0 1 0;
#X connect 9 0 0 0;
#X connect 10 0 4 0;
#X restore 170 689 pd fcpan 0.03;
#X obj 387 18 cnv 15 600 320 empty empty BRANCHES 20 12 0 14 -204800
-66577 0;
#X obj 632 140 +~ 1000;
#X obj 632 120 *~ 1000;
#X msg 671 164 60;
#X obj 593 207 *~;
#X obj 592 184 vcf~ 1000 60;
#X obj 607 140 *~;
#X obj 593 227 *~ 2;
#X obj 591 287 throw~ l;
#X obj 655 287 throw~ r;
#X msg 529 115 60;
#X obj 435 207 *~;
#X obj 452 185 *~;
#X obj 529 95 loadbang;
#X obj 435 287 throw~ l;
#X obj 499 287 throw~ r;
#X obj 475 95 *~ 400;
#X obj 475 115 +~ 600;
#X obj 592 72 r~ white;
#X obj 435 47 r~ white;
#X obj 435 229 *~ 1.2;
#X obj 451 159 +~ 0.12;
#X obj 608 93 vd~ a 900;
#N canvas 1805 558 450 300 fcpan 0;
#X obj 74 133 *~;
#X obj 6 133 *~;
#X obj 90 87 cos~;
#X obj 90 50 -~ 0.25;
#X obj 90 28 *~ 0.25;
#X obj 22 111 cos~;
#X obj 22 87 -~ 0.25;
#X obj 6 156 outlet~ l;
#X obj 74 156 outlet~ r;
#X obj 6 6 inlet~;
#X obj 94 6 sig~ 100;
#X connect 0 0 8 0;
#X connect 1 0 7 0;
#X connect 2 0 0 1;
#X connect 3 0 2 0;
#X connect 3 0 6 0;
#X connect 4 0 3 0;
#X connect 5 0 1 1;
#X connect 6 0 5 0;
#X connect 9 0 1 0;
#X connect 9 0 0 0;
#X connect 10 0 4 0;
#X restore 438 257 pd fcpan 0 \, 28;
#N canvas 1895 579 450 300 fcpan 0;
#X obj 74 133 *~;
#X obj 6 133 *~;
#X obj 90 87 cos~;
#X obj 90 50 -~ 0.25;
#X obj 90 28 *~ 0.25;
#X obj 22 111 cos~;
#X obj 22 87 -~ 0.25;
#X obj 6 156 outlet~ l;
#X obj 74 156 outlet~ r;
#X obj 6 6 inlet~;
#X obj 90 6 sig~ 100;
#X connect 0 0 8 0;
#X connect 1 0 7 0;
#X connect 2 0 0 1;
#X connect 3 0 2 0;
#X connect 3 0 6 0;
#X connect 4 0 3 0;
#X connect 5 0 1 1;
#X connect 6 0 5 0;
#X connect 9 0 1 0;
#X connect 9 0 0 0;
#X connect 10 0 4 0;
#X restore 594 261 pd fcpan 0.64;
#X obj 28 25 cnv 15 330 300 empty empty BUILDINGS 20 12 0 14 -261234
-66577 0;
#X obj 52 63 vd~ a 0;
#X obj 119 73 r~ white;
#X obj 60 278 throw~ l;
#X obj 125 278 throw~ r;
#X obj 59 134 *~;
#X obj 102 169 clip~ 0 0.99;
#X obj 61 201 rzero~;
#X obj 54 87 +~ 0.2;
#X obj 101 147 *~ 0.6;
#X obj 120 98 bp~ 800 1;
#X obj 61 223 *~ 0.2;
#N canvas 1353 821 450 300 fcpan 0;
#X obj 74 133 *~;
#X obj 6 133 *~;
#X obj 90 87 cos~;
#X obj 90 50 -~ 0.25;
#X obj 90 28 *~ 0.25;
#X obj 22 111 cos~;
#X obj 233 104 -~ 0.25;
#X obj 6 156 outlet~ l;
#X obj 74 156 outlet~ r;
#X obj 6 6 inlet~;
#X obj 91 6 sig~ 100;
#X connect 0 0 8 0;
#X connect 1 0 7 0;
#X connect 2 0 0 1;
#X connect 3 0 2 0;
#X connect 3 0 6 0;
#X connect 4 0 3 0;
#X connect 5 0 1 1;
#X connect 6 0 5 0;
#X connect 9 0 1 0;
#X connect 9 0 0 0;
#X connect 10 0 4 0;
#X restore 61 248 pd fcpan 0.51;
#X obj 996 295 cnv 15 500 600 empty empty CONTROLS 20 12 0 14 -228856
-66577 0;
#X obj 678 697 r vol_leaves;
#X obj 1011 324 cnv 15 350 100 empty empty LEAVES 20 12 0 14 -204786
-66577 0;
#X obj 1027 356 hsl 128 15 0 1 0 0 empty empty empty -2 -8 0 10 -262144
-1 -1 7800 1;
#X obj 1013 446 cnv 15 300 100 empty empty DOORWAYS 20 12 0 14 -262130
-66577 0;
#X obj 1037 477 hsl 128 15 0 30 0 0 empty empty empty -2 -8 0 10 -262144
-1 -1 3500 1;
#X obj 266 657 r vol_doorways;
#X obj 1012 556 cnv 15 330 100 empty empty BUILDINGS 20 12 0 14 -261234
-66577 0;
#X obj 1034 584 hsl 128 15 0 1 0 0 empty empty empty -2 -8 0 10 -262144
-1 -1 3600 1;
#X obj 141 223 r vol_buildings;
#X obj 1014 684 cnv 15 300 100 empty empty BRANCHES 20 12 0 14 -204800
-66577 0;
#X obj 1033 712 hsl 128 15 0 40 0 0 empty empty empty -2 -8 0 10 -262144
-1 -1 800 1;
#X obj 1030 729 s vol_branches;
#X obj 681 219 r vol_branches;
#X obj 1172 711 hsl 128 15 0 1500 0 0 empty empty q_branches_whistle
-2 -8 0 10 -262144 -1 -1 5400 1;
#X obj 1169 728 s q_branches_whistle;
#X obj 688 125 r q_branches_whistle;
#X obj 1031 822 hsl 128 15 0 2 0 0 empty empty wind_intensity -2 -8
0 10 -262144 -1 -1 7400 1;
#X obj 1027 840 s wind_intensity;
#X obj 1031 607 s vol_buildings;
#X obj 1034 499 s vol_doorways;
#X obj 1023 377 s vol_leaves;
#X obj 117 403 vd~ a 100;
#X obj 1038 85 delwrite~ a 3000;
#X obj 1207 824 hsl 128 15 0 0.45 0 0 empty empty vol_master -2 -8
0 10 -262144 -1 -1 5900 1;
#X obj 1203 844 s vol_master;
#X obj 1177 137 r vol_master;
#X obj 1367 782 bng 40 250 50 0 empty empty PANIC! 0 -10 0 10 -258113
-1 -1;
#X obj 1367 826 0;
#X obj 451 68 vd~ a 500;
#X obj 436 137 vcf~ 1000 50;
#X obj 679 675 r vol_leaves @hv_param 0 1 0.6;
#X obj 267 633 r vol_doorways @hv_param 0 30 8.267;
#X obj 141 200 r vol_buildings @hv_param 0 1 0.283;
#X obj 682 198 r vol_branches @hv_param 0 40 2.519;
#X obj 688 104 r q_branches_whistle @hv_param 0 1500 637.7;
#X obj 1177 115 r vol_master @hv_param 0 0.45 0.209;
#X connect 2 0 6 0;
#X connect 3 0 125 0;
#X connect 4 0 8 0;
#X connect 5 0 7 0;
#X connect 7 0 1 1;
#X connect 8 0 1 0;
#X connect 12 0 13 0;
#X connect 13 0 14 0;
#X connect 14 0 15 0;
#X connect 15 0 22 0;
#X connect 16 0 17 0;
#X connect 17 0 13 1;
#X connect 17 0 14 1;
#X connect 17 0 15 1;
#X connect 18 0 24 0;
#X connect 19 0 26 0;
#X connect 20 0 18 1;
#X connect 21 0 17 1;
#X connect 22 0 23 0;
#X connect 23 0 18 0;
#X connect 24 0 27 0;
#X connect 25 0 19 0;
#X connect 26 0 20 0;
#X connect 26 0 21 0;
#X connect 27 0 10 0;
#X connect 27 0 11 0;
#X connect 29 0 60 0;
#X connect 32 0 38 0;
#X connect 33 0 43 0;
#X connect 34 0 37 0;
#X connect 35 0 34 0;
#X connect 36 0 33 0;
#X connect 37 0 36 0;
#X connect 38 0 29 0;
#X connect 39 0 63 0;
#X connect 40 0 39 1;
#X connect 41 0 42 0;
#X connect 42 0 40 0;
#X connect 43 0 29 1;
#X connect 43 0 41 0;
#X connect 44 0 59 0;
#X connect 47 0 56 0;
#X connect 48 0 55 0;
#X connect 49 0 48 0;
#X connect 50 0 49 0;
#X connect 51 0 62 0;
#X connect 52 0 51 1;
#X connect 53 0 54 0;
#X connect 54 0 50 0;
#X connect 55 0 44 1;
#X connect 55 0 57 0;
#X connect 56 0 44 0;
#X connect 57 0 58 0;
#X connect 58 0 52 0;
#X connect 59 0 51 0;
#X connect 60 0 39 0;
#X connect 61 0 35 0;
#X connect 62 0 45 0;
#X connect 62 0 46 0;
#X connect 63 0 30 0;
#X connect 63 0 31 0;
#X connect 65 0 69 1;
#X connect 66 0 65 0;
#X connect 67 0 69 2;
#X connect 68 0 71 0;
#X connect 69 0 68 0;
#X connect 70 0 68 1;
#X connect 71 0 88 0;
#X connect 74 0 132 2;
#X connect 75 0 84 0;
#X connect 76 0 75 1;
#X connect 77 0 74 0;
#X connect 77 0 67 0;
#X connect 80 0 81 0;
#X connect 81 0 132 1;
#X connect 82 0 69 0;
#X connect 83 0 132 0;
#X connect 84 0 87 0;
#X connect 85 0 76 0;
#X connect 85 0 76 1;
#X connect 86 0 66 0;
#X connect 86 0 70 0;
#X connect 86 0 70 1;
#X connect 87 0 78 0;
#X connect 87 0 79 0;
#X connect 88 0 72 0;
#X connect 88 0 73 0;
#X connect 90 0 97 0;
#X connect 91 0 99 0;
#X connect 94 0 96 0;
#X connect 95 0 96 1;
#X connect 96 0 100 0;
#X connect 97 0 94 0;
#X connect 97 0 98 0;
#X connect 98 0 95 0;
#X connect 99 0 94 1;
#X connect 100 0 101 0;
#X connect 101 0 92 0;
#X connect 101 0 93 0;
#X connect 103 0 24 1;
#X connect 105 0 123 0;
#X connect 107 0 122 0;
#X connect 108 0 59 1;
#X connect 108 0 60 1;
#X connect 110 0 121 0;
#X connect 111 0 100 1;
#X connect 113 0 114 0;
#X connect 115 0 71 1;
#X connect 115 0 84 1;
#X connect 116 0 117 0;
#X connect 118 0 66 1;
#X connect 118 0 65 1;
#X connect 119 0 120 0;
#X connect 124 0 53 0;
#X connect 126 0 127 0;
#X connect 128 0 7 1;
#X connect 128 0 8 1;
#X connect 129 0 130 0;
#X connect 130 0 127 0;
#X connect 131 0 80 0;
#X connect 131 0 85 0;
#X connect 132 0 75 0;
#X connect 133 0 24 1;
#X connect 134 0 60 1;
#X connect 134 0 59 1;
#X connect 135 0 100 1;
#X connect 136 0 71 1;
#X connect 136 0 84 1;
#X connect 137 0 66 1;
#X connect 137 0 65 1;
#X connect 138 0 8 1;
#X connect 138 0 7 1;
